<svg width="38" height="28" viewBox="0 0 38 28" fill="none" xmlns="http://www.w3.org/2000/svg">
<g clip-path="url(#clip0_1_9)">
<rect width="38" height="28" fill="url(#paint0_linear_1_9)"/>
<mask id="path-2-inside-1_1_9" fill="white">
<path d="M2 1H36V14C36 16.2091 34.2091 18 32 18H6C3.79086 18 2 16.2091 2 14V1Z"/>
</mask>
<path d="M2 1H36V14C36 16.2091 34.2091 18 32 18H6C3.79086 18 2 16.2091 2 14V1Z" fill="url(#paint1_linear_1_9)"/>
<path d="M2 1H36H2ZM37 14C37 16.7614 34.7614 19 32 19H6C3.23858 19 1 16.7614 1 14H3C3 15.6569 4.34315 17 6 17H32C33.6569 17 35 15.6569 35 14H37ZM6 19C3.23858 19 1 16.7614 1 14V1H3V14C3 15.6569 4.34315 17 6 17V19ZM37 1V14C37 16.7614 34.7614 19 32 19V17C33.6569 17 35 15.6569 35 14V1H37Z" fill="white" mask="url(#path-2-inside-1_1_9)"/>
<mask id="path-4-inside-2_1_9" fill="white">
<path d="M2 0H36V13C36 15.2091 34.2091 17 32 17H6C3.79086 17 2 15.2091 2 13V0Z"/>
</mask>
<path d="M2 0H36V13C36 15.2091 34.2091 17 32 17H6C3.79086 17 2 15.2091 2 13V0Z" fill="url(#paint2_linear_1_9)"/>
<path d="M2 0H36H2ZM37 13C37 15.7614 34.7614 18 32 18H6C3.23858 18 1 15.7614 1 13H3C3 14.6569 4.34315 16 6 16H32C33.6569 16 35 14.6569 35 13H37ZM6 18C3.23858 18 1 15.7614 1 13V0H3V13C3 14.6569 4.34315 16 6 16V18ZM37 0V13C37 15.7614 34.7614 18 32 18V16C33.6569 16 35 14.6569 35 13V0H37Z" fill="#8B9BA3" mask="url(#path-4-inside-2_1_9)"/>
<path d="M17.5 4H14.5V5H15.5V6H16.5V7H17.5V9H16.5V10H15.5V11H14.5V12H17.5V11H18.5V10H19.5V11H20.5V12H23.5V11H22.5V10H21.5V9H20.5V7H21.5V6H22.5V5H23.5V4H20.5V5H19.5V6H18.5V5H17.5V4Z" fill="url(#paint3_linear_1_9)"/>
</g>
<defs>
<linearGradient id="paint0_linear_1_9" x1="19" y1="0" x2="19" y2="28" gradientUnits="userSpaceOnUse">
<stop stop-color="white"/>
<stop offset="1" stop-color="#CFDFE8"/>
</linearGradient>
<linearGradient id="paint1_linear_1_9" x1="19" y1="2" x2="19" y2="17" gradientUnits="userSpaceOnUse">
<stop stop-color="#FDFEFE"/>
<stop offset="1" stop-color="#CFDFE8"/>
</linearGradient>
<linearGradient id="paint2_linear_1_9" x1="19" y1="1" x2="19" y2="16" gradientUnits="userSpaceOnUse">
<stop stop-color="#FDFEFE"/>
<stop offset="1" stop-color="#CFDFE8"/>
</linearGradient>
<linearGradient id="paint3_linear_1_9" x1="19" y1="4.30769" x2="19" y2="11.6923" gradientUnits="userSpaceOnUse">
<stop stop-color="#596469"/>
<stop offset="1" stop-color="#858E94"/>
</linearGradient>
<clipPath id="clip0_1_9">
<rect width="38" height="28" fill="white"/>
</clipPath>
</defs>
</svg>
