<svg width="38" height="28" viewBox="0 0 38 28" fill="none" xmlns="http://www.w3.org/2000/svg">
<g clip-path="url(#clip0_1_53)">
<rect width="38" height="28" fill="url(#paint0_linear_1_53)"/>
<g filter="url(#filter0_d_1_53)">
<mask id="path-2-inside-1_1_53" fill="white">
<path d="M2 0H36V13C36 15.2091 34.2091 17 32 17H6C3.79086 17 2 15.2091 2 13V0Z"/>
</mask>
<path d="M2 0H36V13C36 15.2091 34.2091 17 32 17H6C3.79086 17 2 15.2091 2 13V0Z" fill="url(#paint1_linear_1_53)"/>
<path d="M2 0H36H2ZM37 13C37 15.7614 34.7614 18 32 18H6C3.23858 18 1 15.7614 1 13H3C3 14.6569 4.34315 16 6 16H32C33.6569 16 35 14.6569 35 13H37ZM6 18C3.23858 18 1 15.7614 1 13V0H3V13C3 14.6569 4.34315 16 6 16V18ZM37 0V13C37 15.7614 34.7614 18 32 18V16C33.6569 16 35 14.6569 35 13V0H37Z" fill="#64ABD1" mask="url(#path-2-inside-1_1_53)"/>
</g>
<path d="M24 4V12H14V4H24ZM16 10H22V6H16V10Z" fill="url(#paint2_linear_1_53)"/>
</g>
<defs>
<filter id="filter0_d_1_53" x="-2" y="-4" width="42" height="25" filterUnits="userSpaceOnUse" color-interpolation-filters="sRGB">
<feFlood flood-opacity="0" result="BackgroundImageFix"/>
<feColorMatrix in="SourceAlpha" type="matrix" values="0 0 0 0 0 0 0 0 0 0 0 0 0 0 0 0 0 0 127 0" result="hardAlpha"/>
<feOffset/>
<feGaussianBlur stdDeviation="2"/>
<feComposite in2="hardAlpha" operator="out"/>
<feColorMatrix type="matrix" values="0 0 0 0 0.392157 0 0 0 0 0.670588 0 0 0 0 0.819608 0 0 0 1 0"/>
<feBlend mode="normal" in2="BackgroundImageFix" result="effect1_dropShadow_1_53"/>
<feBlend mode="normal" in="SourceGraphic" in2="effect1_dropShadow_1_53" result="shape"/>
</filter>
<linearGradient id="paint0_linear_1_53" x1="19" y1="0" x2="19" y2="28" gradientUnits="userSpaceOnUse">
<stop stop-color="white"/>
<stop offset="1" stop-color="#CFDFE8"/>
</linearGradient>
<linearGradient id="paint1_linear_1_53" x1="19" y1="1" x2="19" y2="16" gradientUnits="userSpaceOnUse">
<stop stop-color="#FDFEFE"/>
<stop offset="1" stop-color="#CFDFE8"/>
</linearGradient>
<linearGradient id="paint2_linear_1_53" x1="19" y1="4.30769" x2="19" y2="11.6923" gradientUnits="userSpaceOnUse">
<stop stop-color="#596469"/>
<stop offset="1" stop-color="#858E94"/>
</linearGradient>
<clipPath id="clip0_1_53">
<rect width="38" height="28" fill="white"/>
</clipPath>
</defs>
</svg>
