/* XPM */
static char *close_prelight[] = {
/* columns rows colors chars-per-pixel */
"38 28 86 1 ",
"  c #5B666B",
". c #616B70",
"X c #667176",
"o c #6C767C",
"O c #727C81",
"+ c #788287",
"@ c #788288",
"# c #7E878D",
"$ c #7E888D",
"% c #64ABD1",
"& c #68ADD2",
"* c #77B5D6",
"= c #78B5D6",
"- c #7CB7D7",
"; c #7EB8D8",
": c #838D92",
"> c #848D93",
", c #A6AEB2",
"< c #A8B0B4",
"1 c #ABB3B8",
"2 c #ACB6BB",
"3 c #AEB7BD",
"4 c #AFBABF",
"5 c #B0BBC1",
"6 c #9AC5DD",
"7 c #9CC7DD",
"8 c #A1C9DF",
"9 c #AFD1E3",
"0 c #AED1E4",
"q c #B0D2E5",
"w c #B3D4E6",
"e c #B7D6E7",
"r c #B8D7E7",
"t c #BAD7E8",
"y c #BBD9E9",
"u c #BEDBEB",
"i c #BFDCEB",
"p c #C5DBE9",
"a c #C0DCEB",
"s c #C4DDEA",
"d c #C2DDED",
"f c #C5DFED",
"g c #CADCE8",
"h c #CFDFE8",
"j c #D0DFE8",
"k c #C7E1EF",
"l c #CAE0EC",
"z c #CCE1EC",
"x c #D0E0E8",
"c c #D0E0EB",
"v c #D6E3EB",
"b c #D6E4EB",
"n c #D3E3EC",
"m c #D3E5EF",
"M c #D4E5EE",
"N c #D8E5EC",
"B c #D9E6ED",
"V c #DCE7EE",
"C c #DCE8EE",
"Z c #CDE4F0",
"A c #D0E6F1",
"S c #D6E7F1",
"D c #D7E8F2",
"F c #D9EAF2",
"G c #DFEAF0",
"H c #DAEBF4",
"J c #DCEBF4",
"K c #DEEDF4",
"L c #E0EAF0",
"P c #E2ECF1",
"I c #E5EEF3",
"U c #E1EEF6",
"Y c #E4EFF7",
"T c #E5F0F7",
"R c #E9F0F4",
"E c #ECF2F6",
"W c #EEF4F7",
"Q c #EBF4F9",
"! c #ECF5FA",
"~ c #F2F7F9",
"^ c #F5F9FA",
"/ c #F7FBFC",
"( c #F8FBFB",
") c #F8FBFC",
"_ c #FBFDFD",
"` c #FCFDFD",
/* pixels */
"!H%````````````````````````````````%HQ",
"TA%`____`__________________________%ZY",
"Uk%())/())()/))))/)/))()())()()))()%fU",
"Kd%^^^^^^^^^^^^^^^^^^^^^^^^^^^^^^^^%iJ",
"Ka%~~~~~~~~~~~,  ,~~,  ,~~~~~~~~~~~%uF",
"Hi%W!WW!WWWWWWW<..<<..<!WWWW!WWW!WW%uF",
"Fu%EEEEEEREREERR<XXXX<EEREEEERERREE%uF",
"Du%RRRRRRRRRRRRRR1oo1RRRRRRRRRRRRRR%uS",
"Su%IIIIIIIIIIIIII2OO2IIIIIIIIIIIIII%yS",
"Sy%PPPPPPPPPPPPP3+++@4PPPPPPPPPPPPP%yS",
"Ay%LLLGGCLGGGGL4$#44$$4LGGGLGGGGGGL%rA",
"mt%CCCCCCCCCCC5>>5CC5>:5CCCCCCCCCCC%ym",
"my%BBBBBBBBBBBBBBBBBBBBBBBBBBBBBBBB%ym",
"Mu&cMvMvbbMMbbMbbbMbMMbbbbbMbMMvbbc%um",
"Ss=7ccccccccvvccccccccvcvvcccccccc8;aM",
"Fzq&8gccjccjhcjccccccjccccjcccccg6&0lB",
"Cms0-%%%%%%%%%%%%%%%%%%%%%%%%%%%&*0smC",
"CBmguewq9q0q0q9q00q0009q00q000qweugmBG",
"GVBMzggsssssssssssssssspsssssssggzMBCG",
"CCVBMMMnnMMnnMnnnnnnnnMMnnMnnnnMMBBVCC",
"VBBCBBBBBBBBBBBBBBBBBBBBBBBBBBBBBBCCBV",
"BBBBBBBBBBBBBBBBBBBBBBBBBBBBBBBBBBBBBB",
"BBBBBBBBBBBBBBBBBBBBBBBBBBBBBBBBBBBBBB",
"bMMMMMMbMMbMbbbbMMMMbbMMMbvbbMMbMMMMbv",
"vvvvvvvvvvvvvvvvvvvvvvvvvMvvvMvvvvvvvv",
"cvcccccccvcvccccccccccvcvccvcccccccccv",
"cccccccccccccccccccccccccccccccccccccc",
"hhccjhhhhcjhccchjchhhccchhchhchcjjchjj"
};
