/* XPM */
static char *close_active[] = {
/* columns rows colors chars-per-pixel */
"38 28 56 1 ",
"  c #5B666B",
". c #616B70",
"X c #667176",
"o c #6C767C",
"O c #727C81",
"+ c #788287",
"@ c #788288",
"# c #7E878D",
"$ c #7E888D",
"% c #838D92",
"& c #848D93",
"* c #8B9BA3",
"= c #92A1A9",
"- c #A6AEB2",
"; c #A8B0B4",
": c #A6B3B9",
"> c #ABB3B8",
", c #A8B4BA",
"< c #ACB6BB",
"1 c #AEB7BD",
"2 c #AFBABF",
"3 c #AFBAC0",
"4 c #AFBEC6",
"5 c #B0BBC1",
"6 c #B3C2CA",
"7 c #CDDCE5",
"8 c #CFDFE8",
"9 c #D2DFE7",
"0 c #D0DFE8",
"q c #D2E0E8",
"w c #D5E3EB",
"e c #D6E3EB",
"r c #D6E4EB",
"t c #D6E4EC",
"y c #DAE6ED",
"u c #DCE7EE",
"i c #DCE8EE",
"p c #DFEAF0",
"a c #E0EAF0",
"s c #E2ECF1",
"d c #E6EEF3",
"f c #E7EFF4",
"g c #EAEEF1",
"h c #E8EFF4",
"j c #EFF1F3",
"k c #E9F0F4",
"l c #ECF2F6",
"z c #EEF4F7",
"x c #EFF5F8",
"c c #F0F5F7",
"v c #F2F7F9",
"b c #F5F9FA",
"n c #F8FBFB",
"m c #F8FBFC",
"M c #FAFCFD",
"N c white",
/* pixels */
"NN*NNNNNNNNNNNNNNNNNNNNNNNNNNNNNNNN*NN",
"NN*NMMMMNMMMMMMMMMMMMMMMMMMMMMMMMMM*NN",
"MM*nmmmnmmnmmmmmmmmmmmnmnmmnmnmmmnm*MM",
"mm*bbbbbbbbbbbbbbbbbbbbbbbbbbbbbbbb*mm",
"mb*vvvvvvvvvvv-  -vv-  -vvvvvvvvvvv*bb",
"bb*zxzzxzzzzzzz;..;;..;xzzzzxzzzxzz*bb",
"vb*llllllllklllk;XXXX;lllllllklllll*vb",
"vv*kkkkkkkkkkkkkk>oo>kkkkkkkkkkkkkk*vv",
"vc*dddddddddddddd<OO<dddddddddddddd*vv",
"zz*sssssssssssss1+++@2sssssssssssss*zz",
"ll*aaappiappppa2$#22$$2appaapappppa*ll",
"lk*iiiiiiiiiii5&&5ii5&%5iiiiiiiiiii*lk",
"kk*yyyyyyyyyyyyyyyyyyyyyyyyyyyyyyyy*kk",
"kk=qteterrttrrtrrrtrttttrrttrtterr9*hd",
"dd:4qqqqqqqeqqqqqqqqqqqqqqqqqqqqqq63dd",
"ddg=67qq0qq00q0qqqqqq0qqqq0qqqqq74=gdd",
"ssfj3***************************=,jdss",
"aaadbNNNNNNNNNNNNNNNNNNNNNNNNNNNNbdaaa",
"apiapipipippappiipapppiipppaiaipipippa",
"iiiiiiiiiiiiiiiiiiipiipiiiiiiiiiiiiiii",
"uyyiuuyyyyyuyuyuiuyuuiiuuyyyyiuyiuiiyu",
"yyyyyyyyyyyyyyyyyyyyyyyyyyyyyyyyyyyyyy",
"yyyyyyyyyyyyyyyyyyyyyyyyyyyyyyyyyyyyyy",
"rttttttrttrtttttttttrrtttrerrttrttttre",
"eeeeeeeeeeeeeeqeeeeeeeeeeteeeteeeeeeee",
"qeqqqqqqqeqeqqqqqqqqqqqqeqqeqqqqqqqqqe",
"qqqqqqqqqqqqqqqqqqqqqqqqqqqqqqqqqqqqqq",
"88qq08888q08qqq80q888qqq88q88q8q00q888"
};
