/* XPM */
static char *close_pressed[] = {
/* columns rows colors chars-per-pixel */
"38 28 84 1 ",
"  c #5B666B",
". c #616B70",
"X c #667176",
"o c #6C767C",
"O c #487892",
"+ c #4E7D97",
"@ c #727C81",
"# c #788287",
"$ c #788288",
"% c #7E878D",
"& c #7E888D",
"* c #638EA7",
"= c #6994AC",
"- c #838D92",
"; c #848D93",
": c #9EA8AD",
"> c #87A8BA",
", c #88A8BA",
"< c #8FAEBF",
"1 c #A3ADB2",
"2 c #A4ADB2",
"3 c #A8B1B6",
"4 c #AAB3B8",
"5 c #ACB6BB",
"6 c #ADB7BC",
"7 c #AEB9BF",
"8 c #AEB9C0",
"9 c #AFCDDE",
"0 c #BFD2DD",
"q c #BBD8E7",
"w c #BBD8E8",
"e c #BCD8E8",
"r c #C7D8E2",
"t c #C8D9E3",
"y c #CADAE4",
"u c #CDDCE5",
"i c #C2DBEA",
"p c #C2DDEB",
"a c #C6DFEC",
"s c #CFDFE8",
"d c #D0DFE7",
"f c #D1DFE8",
"g c #C7E0EC",
"h c #CAE0EB",
"j c #C9E0ED",
"k c #CBE1EC",
"l c #CCE3EF",
"z c #CEE4EF",
"x c #D2E0E8",
"c c #D5E3EB",
"v c #D6E2EA",
"b c #D7E4EB",
"n c #D0E3EE",
"m c #D3E5ED",
"M c #D7E4EC",
"N c #D8E4EB",
"B c #DBE6ED",
"V c #DCE7ED",
"C c #DCE8EE",
"Z c #DDE8EE",
"A c #CEE4F0",
"S c #D0E6F1",
"D c #DAE7F0",
"F c #D5E9F3",
"G c #DAE8F1",
"H c #DFEAF0",
"J c #DFEEF5",
"K c #E0EAEF",
"L c #E1EBF0",
"P c #E3ECF1",
"I c #E5EEF3",
"U c #E5EFF4",
"Y c #E8EFF3",
"T c #E8EFF4",
"R c #E7F0F3",
"E c #E7F0F4",
"W c #EAF2F6",
"Q c #ECF3F7",
"! c #EFF5F8",
"~ c #F3F7FB",
"^ c #F4F8FB",
"/ c #F6FAFC",
"( c #F8FAFC",
") c #FCFDFF",
/* pixels */
")JOrrrrrrrrtrtttrtrrtttrrrrrtrrrrrrOJ(",
"(FOrtttyyyyyyyyyyyyyyyyyyyyyyyytttrOA/",
"/SOttyuudddddddddddddddddddddduuyttOl/",
"^SOtyuxvNNNBBBBNNBBBNNBNBBBBBbvxuytOj~",
"~AOtufNVKLLLLL:  :LL:  :LPLPLHVvdutOj~",
"~zOtuxBLIUYIITI2..11..2TIRIRUILBxutOj!",
"!lOtuvVPIWWWWWWW3XXXX3WWWWWWWIPBvutOg!",
"!lOtuvVPIIWWWWWTW4oo4WWEWWTWWILBxutOgW",
"QjOtuxBHIIIIIIIII5@@5IIIIIIIIIZBxutOaW",
"WjOtuxNZLPPPPPPP6###$7PPPPPPPLZbdutOpW",
"WgOtydvBBZZZZZZ7&%77&&7ZZZZZZZBvuytOpE",
"WaOtyuxvbBBBBB8;;8BB8;-8BBBBNbvxuytOpU",
"UaOttyuuxxxxxxxxxxxxxxxxxxxxxxduytrOpU",
"Uj+0ttyyuuuuuuuuuuuuuuuuuuuuuuyytr0OaI",
"In*,rrttttttttttttttttttttttttttrr<=lI",
"IG9+<0rrrrrrrrrrrrrrrrrrrrrrrrrr0>+9GI",
"PLm9=OOOOOOOOOOOOOOOOOOOOOOOOOOO+*9mHP",
"LLHMjiewqeweqeqwwwwqqqqewqwqweeeihMHLL",
"LHZHZBDBDBBBGBDBBBDBBDBBBBDGBDBBBZZHHL",
"ZZZZZZZZZZZZZZZZZZZHZZHZZZZZZZZZZZZZZZ",
"VBBZVBBBBBBVBVBBZVBVVZZVVBBBBZVBZBZZBV",
"BBBBBBBBBBBBBBBBBBBBBBBBBBBBBBBBBBBBBB",
"BBBBMBBBBBBBBBBBBBBBMMMBMMBBBBBBBBBBBB",
"bMMMMMMbMMbMMMMMMMMMbbMMMbvbbMMbMMMMbv",
"vvvvvvvvvvvvvvxvvvvvvvvvvMvvvMvvvvvvvv",
"xvxxxxxxxvxvxxxxxxxxxxxxxxxvxxxxxxxxxv",
"xxxxxxxxxxxxxxxxxxxxxxxxxxxxxxxxxxxxxx",
"ssjxfjjssxxsxxxsfxsssxxxssxssxsxffxsss"
};
