/* XPM */
static char *minimize_active[] = {
/* columns rows colors chars-per-pixel */
"38 28 42 1 ",
"  c #5F696F",
". c #6F797E",
"X c #7F888E",
"o c #80898F",
"O c #8B9BA3",
"+ c #92A1A9",
"@ c #A6B3B9",
"# c #A8B4BA",
"$ c #AFBAC0",
"% c #AFBEC6",
"& c #B3C2CA",
"* c #CDDCE5",
"= c #CFDFE8",
"- c #D2DFE7",
"; c #D0DFE8",
": c #D2E0E8",
"> c #D5E3EB",
", c #D6E3EB",
"< c #D6E4EB",
"1 c #D6E4EC",
"2 c #DAE6ED",
"3 c #DCE7EE",
"4 c #DCE8EE",
"5 c #DFEAF0",
"6 c #E0EAF0",
"7 c #E2ECF1",
"8 c #E6EEF3",
"9 c #E7EFF4",
"0 c #EAEEF1",
"q c #E8EFF4",
"w c #EFF1F3",
"e c #E9F0F4",
"r c #ECF2F6",
"t c #EEF4F7",
"y c #EFF5F8",
"u c #F0F5F7",
"i c #F2F7F9",
"p c #F5F9FA",
"a c #F8FBFB",
"s c #F8FBFC",
"d c #FAFCFD",
"f c white",
/* pixels */
"ffOffffffffffffffffffffffffffffffffOff",
"ffOfddddfddddddddddddddddddddddddddOff",
"ddOasssassasssssssssssasassasasssasOdd",
"ssOppppppppppppppppppppppppppppppppOss",
"spOiiiiiiiiiiiiiiiiiiiiiiiiiiiiiiiiOpp",
"ppOtyttyttttttttytttyttyttttytttyttOpp",
"ipOrrrrrrrrerrrerrrrrrrrrrrrrerrrrrOip",
"iiOeeeeeeeeeee          eeeeeeeeeeeOii",
"iuO88888888888..........88888888888Oii",
"ttO77777777777XXXXXXXXXo77777777777Ott",
"rrO66655465555666566666655665655556Orr",
"reO44444444444444444444444444444444Ore",
"eeO22222222222222222222222222222222Oee",
"ee+:1,1,<<11<<1<<<1<1111<<11<11,<<-Oq8",
"88@%:::::::,::::::::::::::::::::::&$88",
"880+&*::;::;;:;::::::;::::;:::::*%+088",
"779w$OOOOOOOOOOOOOOOOOOOOOOOOOOO+#w877",
"6668pffffffffffffffffffffffffffffp8666",
"65465454545565544565554455564645454556",
"44444444444444444445445444444444444444",
"32243322222323234323344332222432434423",
"22222222222222222222222222222222222222",
"22222222222222222222222222222222222222",
"<111111<11<111111111<<111<,<<11<1111<,",
",,,,,,,,,,,,,,:,,,,,,,,,,1,,,1,,,,,,,,",
":,:::::::,:,::::::::::::,::,:::::::::,",
"::::::::::::::::::::::::::::::::::::::",
"==::;====:;=:::=;:===:::==:==:=:;;:==="
};
