/* XPM */
static char *minimize_pressed[] = {
/* columns rows colors chars-per-pixel */
"38 28 68 1 ",
"  c #5F696F",
". c #6F797E",
"X c #487892",
"o c #4E7D97",
"O c #7F888E",
"+ c #638EA7",
"@ c #6994AC",
"# c #80898F",
"$ c #87A8BA",
"% c #88A8BA",
"& c #8FAEBF",
"* c #AFCDDE",
"= c #BFD2DD",
"- c #BBD8E7",
"; c #BBD8E8",
": c #BCD8E8",
"> c #C7D8E2",
", c #C8D9E3",
"< c #CADAE4",
"1 c #CDDCE5",
"2 c #C2DBEA",
"3 c #C2DDEB",
"4 c #C6DFEC",
"5 c #CFDFE8",
"6 c #D0DFE7",
"7 c #D1DFE8",
"8 c #C7E0EC",
"9 c #CAE0EB",
"0 c #C9E0ED",
"q c #CBE1EC",
"w c #CCE3EF",
"e c #CEE4EF",
"r c #D2E0E8",
"t c #D5E3EB",
"y c #D6E2EA",
"u c #D7E4EB",
"i c #D0E3EE",
"p c #D3E5ED",
"a c #D7E5EC",
"s c #D8E4EB",
"d c #DBE6ED",
"f c #DCE7ED",
"g c #DCE8EE",
"h c #DDE8EE",
"j c #CEE4F0",
"k c #D0E6F1",
"l c #DAE7F0",
"z c #D5E9F3",
"x c #DAE8F1",
"c c #DFEAF0",
"v c #DFEEF5",
"b c #E0EAEF",
"n c #E1EBF0",
"m c #E3ECF1",
"M c #E5EEF3",
"N c #E5EFF4",
"B c #E8EFF3",
"V c #E8EFF4",
"C c #E7F0F3",
"Z c #E7F0F4",
"A c #EAF2F6",
"S c #ECF3F7",
"D c #EFF5F8",
"F c #F3F7FB",
"G c #F4F8FB",
"H c #F6FAFC",
"J c #F8FAFC",
"K c #FCFDFF",
/* pixels */
"KvX>>>>>>>>,>,,,>,>>,,,>>>>>,>>>>>>XvJ",
"JzX>,,,<<<<<<<<<<<<<<<<<<<<<<<<,,,>XjH",
"HkX,,<11666666666666666666666611<,,XwH",
"GkX,<1rysssddddssdddssdsddddduyr1<,X0F",
"FjX,17sfbnnnnnnnnnnnnmnmnmnmncfy61,X0F",
"FeX,1rdnMNBNMVMZABMMZBBVMCMCNMndr1,X0D",
"DwX,1yfmMAAAAAAAAAAAAAAAAAAAAMmdy1,X8D",
"DwX,1yfmMMAAAA          AAVAAMndr1,X8A",
"S0X,1rdcMMMMMM..........MMMMMMhdr1,X4A",
"A0X,1rshnmmmmmOOOOOOOOO#mmmmmnhu61,X3A",
"A8X,<6yddhhhhhhhhhhhhhhhhhhhhhdy1<,X3Z",
"A4X,<1ryuddddddddaddddsdddddsuyr1<,X3N",
"N4X,,<11rrrrrrrrrrrrrrrrrrrrrr61<,>X3N",
"N0o=,,<<1111111111111111111111<<,>=X4M",
"Mi+%>>,,,,,,,,,,,,,,,,,,,,,,,,,,>>&@wM",
"Mx*o&=>>>>>>>>>>>>>>>>>>>>>>>>>>=$o*xM",
"mnp*@XXXXXXXXXXXXXXXXXXXXXXXXXXXo+*pcm",
"nnca02:;-:;:-:-;;;;----:;-;-;:::29acnn",
"nchchdldldddxdldddlddlddddlxdldddhhccn",
"hhhhhhhhhhhhhhhhhhhchhchhhhhhhhhhhhhhh",
"fddhfddddddfdfddhfdffhhffddddhfdhdhhdf",
"dddddddddddddddddddddddddddddddddddddd",
"ddddadddddddddddddddaaadaadddddddddddd",
"uaaaaaauaauaaaaaaaaauuaaauyuuaauaaaauy",
"yyyyyyyyyyyyyyryyyyyyyyyyayyyayyyyyyyy",
"ryrrrrrrryryrrrrrrrrrrrrrrryrrrrrrrrry",
"rrrrrrrrrrrrrrrrrrrrrrrrrrrrrrrrrrrrrr",
"550r70555rr5rrr57r555rrr55r55r5r77r550"
};
