/* XPM */
static char *minimize_prelight[] = {
/* columns rows colors chars-per-pixel */
"38 28 73 1 ",
"  c #5F696F",
". c #6F797E",
"X c #6F797F",
"o c #7F888E",
"O c #64ABD1",
"+ c #68ADD2",
"@ c #77B5D6",
"# c #78B5D6",
"$ c #7CB7D7",
"% c #7EB8D8",
"& c #80898F",
"* c #9AC5DD",
"= c #9CC7DD",
"- c #A1C9DF",
"; c #AFD1E3",
": c #AED1E4",
"> c #B0D2E5",
", c #B3D4E6",
"< c #B7D6E7",
"1 c #B8D7E7",
"2 c #BAD7E8",
"3 c #BBD9E9",
"4 c #BEDBEB",
"5 c #BFDCEB",
"6 c #C5DBE9",
"7 c #C0DCEB",
"8 c #C4DDEA",
"9 c #C2DDED",
"0 c #C5DFED",
"q c #CADCE8",
"w c #CFDFE8",
"e c #D0DFE8",
"r c #C7E1EF",
"t c #CAE0EC",
"y c #CCE1EC",
"u c #D0E0E8",
"i c #D0E0EB",
"p c #D6E3EB",
"a c #D6E4EB",
"s c #D3E3EC",
"d c #D3E5EF",
"f c #D4E5EE",
"g c #D8E5EC",
"h c #D9E6ED",
"j c #DCE7EE",
"k c #DCE8EE",
"l c #CDE4F0",
"z c #D0E6F1",
"x c #D6E7F1",
"c c #D7E8F2",
"v c #D9EAF2",
"b c #DFEAF0",
"n c #DAEBF4",
"m c #DCEBF4",
"M c #DEEDF4",
"N c #E0EAF0",
"B c #E2ECF1",
"V c #E5EEF3",
"C c #E1EEF6",
"Z c #E4EFF7",
"A c #E5F0F7",
"S c #E9F0F4",
"D c #ECF2F6",
"F c #EEF4F7",
"G c #EBF4F9",
"H c #ECF5FA",
"J c #F2F7F9",
"K c #F5F9FA",
"L c #F7FBFC",
"P c #F8FBFB",
"I c #F8FBFC",
"U c #FBFDFD",
"Y c #FCFDFD",
/* pixels */
"HnOYYYYYYYYYYYYYYYYYYYYYYYYYYYYYYYYOnG",
"AzOYUUUUYUUUUUUUUUUUUUUUUUUUUUUUUUUOlZ",
"CrOPIILPIIPILIIIILILIIPIPIIPIPIIIPIO0C",
"M9OKKKKKKKKKKKKKKKKKKKKKKKKKKKKKKKKO5m",
"M7OJJJJJJJJJJJJJJJJJJJJJJJJJJJJJJJJO4v",
"n5OFHFFHFFFFFFFFHFFFHFFHFFFFHFFFHFFO4v",
"v4ODDDDDDSDSDDSSDSSDDSDDSDDDDSDSSDDO4v",
"c4OSSSSSSSSSSS          SSSSSSSSSSSO4x",
"x4OVVVVVVVVVVV..........VVVVVVVVVVVO3x",
"x3OBBBBBBBBBBBooooooooo&BBBBBBBBBBBO3x",
"z3ONNNbbkNbbbbNbbbNbNbbNbbbNbbbbbbNO1z",
"d2OkkkkkkkkkkkkkkkkkkkkkkkkkkkkkkkkO3d",
"d3OhhhhhhhhhhhhhhhhhhhhhhhhhhhhhhhhO3d",
"f4+ifpfpaaffaafaaafaffaaaaafaffpaaiO4d",
"x8#=iiiiiiiippiiiiiiiipippiiiiiiii-%7f",
"vy>+-qiieiiewieiiiiiieiiiieiiiiiq*+:th",
"kd8:$OOOOOOOOOOOOOOOOOOOOOOOOOOO+@:8dk",
"khdq4<,>;>:>:>;>::>:::;>::>:::>,<4qdhb",
"bjhfyqq888888888888888868888888qqyfhkb",
"kkjhfffssffssfssssssssffssfssssffhhjkk",
"jhhkhhhhhhhhhhhhhhhhhhhhhhhhhhhhhhkkhj",
"hhhhhhhhhhhhhhhhhhhhhhhhhhhhhhhhhhhhhh",
"hhhhhhhhhhhhhhhhhhhhhhhhhhhhhhhhhhhhhh",
"affffffaffafaaaaffffaafffapaaffaffffap",
"pppppppppppppppppppppppppfpppfpppppppp",
"ipiiiiiiipipiiiiiiiiiipipiipiiiiiiiiip",
"iiiiiiiiiiiiiiiiiiiiiiiiiiiiiiiiiiiiii",
"wwiiewwwwiewiiiweiwwwiiiwwiwwiwieeiwee"
};
