/* XPM */
static char *maximize_pressed[] = {
/* columns rows colors chars-per-pixel */
"38 28 77 1 ",
"  c #5B666B",
". c #606B70",
"X c #667076",
"o c #6C767B",
"O c #6C767C",
"+ c #487892",
"@ c #4E7D97",
"# c #727C81",
"$ c #788187",
"% c #788288",
"& c #7E878D",
"* c #7E888D",
"= c #638EA7",
"- c #6994AC",
"; c #838D92",
": c #848D93",
"> c #87A8BA",
", c #88A8BA",
"< c #8FAEBF",
"1 c #AFCDDE",
"2 c #BFD2DD",
"3 c #BBD8E7",
"4 c #BBD8E8",
"5 c #BCD8E8",
"6 c #C7D8E2",
"7 c #C8D9E3",
"8 c #CADAE4",
"9 c #CDDCE5",
"0 c #C2DBEA",
"q c #C2DDEB",
"w c #C6DFEC",
"e c #CFDFE8",
"r c #D0DFE7",
"t c #D1DFE8",
"y c #C7E0EC",
"u c #CAE0EB",
"i c #C9E0ED",
"p c #CBE1EC",
"a c #CCE3EF",
"s c #CEE4EF",
"d c #D2E0E8",
"f c #D5E3EB",
"g c #D6E2EA",
"h c #D7E4EB",
"j c #D0E3EE",
"k c #D3E5ED",
"l c #D7E4EC",
"z c #D8E4EB",
"x c #DBE6ED",
"c c #DCE7ED",
"v c #DCE8EE",
"b c #DDE8EE",
"n c #CEE4F0",
"m c #D0E6F1",
"M c #DAE7F0",
"N c #D5E9F3",
"B c #DAE8F1",
"V c #DFEAF0",
"C c #DFEEF5",
"Z c #E0EAEF",
"A c #E1EBF0",
"S c #E3ECF1",
"D c #E5EEF3",
"F c #E5EFF4",
"G c #E8EFF3",
"H c #E8EFF4",
"J c #E7F0F3",
"K c #E7F0F6",
"L c #E8F0F4",
"P c #EAF2F6",
"I c #ECF3F7",
"U c #EFF5F8",
"Y c #F3F7FB",
"T c #F4F8FB",
"R c #F6FAFC",
"E c #F8FAFC",
"W c #FCFDFF",
/* pixels */
"WC+66666666767776766777666667666666+CE",
"EN+67778888888888888888888888887776+nR",
"Rm+77899rrrrrrrrrrrrrrrrrrrrrr99877+aR",
"Tm+789dgzzzxxxxzzxxxzzxzxxxxxhgd987+iY",
"Yn+79tzcZAAAAA          ASASAVcgr97+iY",
"Ys+79dxADFGFDH..........DJDJFDAxd97+iU",
"Ua+79gcSDPPPPPXXPPPPPPXXPPPPPDSxg97+yU",
"Ua+79gcSDDPPPPOoPPPPPPOoPPHPPDAxd97+yP",
"Ii+79dxVDDDDDD##DDDDDD##DDDDDDbxd97+wP",
"Pi+79dzbASSSSS$%SSSSSS$%SSSSSAbhr97+qP",
"Py+78rgxxbbbbb***&*&****bbbbbbxg987+qK",
"Pw+789dghxxxxx::::::::;:xxxxzhgd987+qF",
"Fw+77899ddddddddddddddddddddddr9876+qF",
"Fi@27788999999999999999999999988762+wD",
"Dj=,667777777777777777777777777766<-aD",
"DB1@<2666666666666666666666666662>@1BD",
"SAk1-+++++++++++++++++++++++++++@=1kVS",
"AAVli0543545353444433335434345550ulVAA",
"AVbVbxMxMxxxBxMxxxMxxMxxxxMBxMxxxbbVVA",
"bbbbbbbbbbbbbbbbbbbVbbVbbbbbbbbbbbbbbb",
"cxxbcxxxxxxcxcxxbcxccbbccxxxxbcxbxbbxc",
"xxxxxxxxxxxxxxxxxxxxxxxxxxxxxxxxxxxxxx",
"xxxxlxxxxxxxxxxxxxxxlllxllxxxxxxxxxxxx",
"hllllllhllhlllllllllhhlllhghhllhllllhg",
"ggggggggggggggdgggggggggglggglgggggggg",
"dgdddddddgdgdddddddddddddddgdddddddddg",
"dddddddddddddddddddddddddddddddddddddd",
"eeidtiieeddedddetdeeedddeedeededttdeee"
};
