/* XPM */
static char *maximize_active[] = {
/* columns rows colors chars-per-pixel */
"38 28 50 1 ",
"  c #5B666B",
". c #606B70",
"X c #667076",
"o c #6C767B",
"O c #6C767C",
"+ c #727C81",
"@ c #788187",
"# c #788288",
"$ c #7E878D",
"% c #7E888D",
"& c #838D92",
"* c #848D93",
"= c #8B9BA3",
"- c #92A1A9",
"; c #A6B3B9",
": c #A8B4BA",
"> c #AFBAC0",
", c #AFBEC6",
"< c #B3C2CA",
"1 c #CDDCE5",
"2 c #CFDFE8",
"3 c #D2DFE7",
"4 c #D0DFE8",
"5 c #D2E0E8",
"6 c #D5E3EB",
"7 c #D6E3EB",
"8 c #D6E4EB",
"9 c #D6E4EC",
"0 c #DAE6ED",
"q c #DCE7EE",
"w c #DCE8EE",
"e c #DFEAF0",
"r c #E0EAF0",
"t c #E2ECF1",
"y c #E6EEF3",
"u c #E7EFF4",
"i c #EAEEF1",
"p c #E8EFF4",
"a c #EFF1F3",
"s c #E9F0F4",
"d c #ECF2F6",
"f c #EEF4F7",
"g c #EFF5F8",
"h c #F0F5F7",
"j c #F2F7F9",
"k c #F5F9FA",
"l c #F8FBFB",
"z c #F8FBFC",
"x c #FAFCFD",
"c c white",
/* pixels */
"cc=cccccccccccccccccccccccccccccccc=cc",
"cc=cxxxxcxxxxxxxxxxxxxxxxxxxxxxxxxx=cc",
"xx=lzzzlzzlzzzzzzzzzzzlzlzzlzlzzzlz=xx",
"zz=kkkkkkkkkkkkkkkkkkkkkkkkkkkkkkkk=zz",
"zk=jjjjjjjjjjj          jjjjjjjjjjj=kk",
"kk=fgffgffffff..........ffffgfffgff=kk",
"jk=ddddddddsddXXddddddXXdddddsddddd=jk",
"jj=sssssssssssOossssssOosssssssssss=jj",
"jh=yyyyyyyyyyy++yyyyyy++yyyyyyyyyyy=jj",
"ff=ttttttttttt@#tttttt@#ttttttttttt=ff",
"dd=rrreewreeee%%%$%$%%%%eerrereeeer=dd",
"ds=wwwwwwwwwww********&*wwwwwwwwwww=ds",
"ss=00000000000000000000000000000000=ss",
"ss-59797889988988898999988998997883=py",
"yy;,555555575555555555555555555555<>yy",
"yyi-<1554554454555555455554555551,-iyy",
"ttua>===========================-:aytt",
"rrrykcccccccccccccccccccccccccccckyrrr",
"rewreweweweereewwereeewweeerwrweweweer",
"wwwwwwwwwwwwwwwwwwwewwewwwwwwwwwwwwwww",
"q00wqq00000q0q0qwq0qqwwqq0000wq0wqww0q",
"00000000000000000000000000000000000000",
"00000000000000000000000000000000000000",
"89999998998999999999889998788998999987",
"77777777777777577777777779777977777777",
"57555555575755555555555575575555555557",
"55555555555555555555555555555555555555",
"22554222254255524522255522522525445222"
};
