/* XPM */
static char *maximize_prelight[] = {
/* columns rows colors chars-per-pixel */
"38 28 80 1 ",
"  c #5B666B",
". c #606B70",
"X c #667076",
"o c #6C767B",
"O c #6C767C",
"+ c #727C81",
"@ c #788187",
"# c #788288",
"$ c #7E878D",
"% c #7E888D",
"& c #64ABD1",
"* c #68ADD2",
"= c #77B5D6",
"- c #78B5D6",
"; c #7CB7D7",
": c #7EB8D8",
"> c #838D92",
", c #848D93",
"< c #9AC5DD",
"1 c #9CC7DD",
"2 c #A1C9DF",
"3 c #AFD1E3",
"4 c #AED1E4",
"5 c #B0D2E5",
"6 c #B3D4E6",
"7 c #B7D6E7",
"8 c #B8D7E7",
"9 c #BAD7E8",
"0 c #BBD9E9",
"q c #BEDBEB",
"w c #BFDCEB",
"e c #C5DBE9",
"r c #C0DCEB",
"t c #C4DDEA",
"y c #C2DDED",
"u c #C5DFED",
"i c #CADCE8",
"p c #CFDFE8",
"a c #D0DFE8",
"s c #C7E1EF",
"d c #CAE0EC",
"f c #CCE1EC",
"g c #D0E0E8",
"h c #D0E0EB",
"j c #D6E3EB",
"k c #D6E4EB",
"l c #D3E3EC",
"z c #D3E5EF",
"x c #D4E5EE",
"c c #D8E5EC",
"v c #D9E6ED",
"b c #DCE7EE",
"n c #DCE8EE",
"m c #CDE4F0",
"M c #D0E6F1",
"N c #D6E7F1",
"B c #D7E8F2",
"V c #D9EAF2",
"C c #DFEAF0",
"Z c #DAEBF4",
"A c #DCEBF4",
"S c #DEEDF4",
"D c #E0EAF0",
"F c #E2ECF1",
"G c #E5EEF3",
"H c #E1EEF6",
"J c #E4EFF7",
"K c #E5F0F7",
"L c #E9F0F4",
"P c #ECF2F6",
"I c #EEF4F7",
"U c #EBF4F9",
"Y c #ECF5FA",
"T c #F2F7F9",
"R c #F5F9FA",
"E c #F7FBFC",
"W c #F8FBFB",
"Q c #F8FBFC",
"! c #FBFDFD",
"~ c #FCFDFD",
/* pixels */
"YZ&~~~~~~~~~~~~~~~~~~~~~~~~~~~~~~~~&ZU",
"KM&~!!!!~!!!!!!!!!!!!!!!!!!!!!!!!!!&mJ",
"Hs&WQQEWQQWQEQQQQEQEQQWQWQQWQWQQQWQ&uH",
"Sy&RRRRRRRRRRRRRRRRRRRRRRRRRRRRRRRR&wA",
"Sr&TTTTTTTTTTT          TTTTTTTTTTT&qV",
"Zw&IYIIYIIIIII..........IIIIYIIIYII&qV",
"Vq&PPPPPPLPLPPXXPLLPPLXXLPPPPLPLLPP&qV",
"Bq&LLLLLLLLLLLOoLLLLLLOoLLLLLLLLLLL&qN",
"Nq&GGGGGGGGGGG++GGGGGG++GGGGGGGGGGG&0N",
"N0&FFFFFFFFFFF@#FFFFFF@#FFFFFFFFFFF&0N",
"M0&DDDCCnDCCCC%%%$%$%%%%CCCDCCCCCCD&8M",
"z9&nnnnnnnnnnn,,,,,,,,>,nnnnnnnnnnn&0z",
"z0&vvvvvvvvvvvvvvvvvvvvvvvvvvvvvvvv&0z",
"xq*hxjxjkkxxkkxkkkxkxxkkkkkxkxxjkkh&qz",
"Nt-1hhhhhhhhjjhhhhhhhhjhjjhhhhhhhh2:rx",
"Vf5*2ihhahhaphahhhhhhahhhhahhhhhi<*4dv",
"nzt4;&&&&&&&&&&&&&&&&&&&&&&&&&&&*=4tzn",
"nvziq7653545453544544435445444567qizvC",
"CbvxfiittttttttttttttttetttttttiifxvnC",
"nnbvxxxllxxllxllllllllxxllxllllxxvvbnn",
"bvvnvvvvvvvvvvvvvvvvvvvvvvvvvvvvvvnnvb",
"vvvvvvvvvvvvvvvvvvvvvvvvvvvvvvvvvvvvvv",
"vvvvvvvvvvvvvvvvvvvvvvvvvvvvvvvvvvvvvv",
"kxxxxxxkxxkxkkkkxxxxkkxxxkjkkxxkxxxxkj",
"jjjjjjjjjjjjjjjjjjjjjjjjjxjjjxjjjjjjjj",
"hjhhhhhhhjhjhhhhhhhhhhjhjhhjhhhhhhhhhj",
"hhhhhhhhhhhhhhhhhhhhhhhhhhhhhhhhhhhhhh",
"pphhapppphaphhhpahppphhhpphpphphaahpaa"
};
