/* XPM */
static char *title_4_active[] = {
/* columns rows colors chars-per-pixel */
"2 28 20 1 ",
"  c #CFDFE8",
". c #D3E2EA",
"X c #D4E2EA",
"o c #D6E4EB",
"O c #D7E5ED",
"+ c #D9E6ED",
"@ c #DCE7EE",
"# c #DEE9EF",
"$ c #DFEAF0",
"% c #E1EBF0",
"& c #E2ECF1",
"* c #E4EDF3",
"= c #EBF2F6",
"- c #EDF3F7",
"; c #EEF4F7",
": c #F3F7F9",
"> c #F7F9FB",
", c #F9FBFC",
"< c #FBFDFE",
"1 c white",
/* pixels */
"11",
"11",
"<<",
",,",
",>",
">>",
":>",
"::",
":;",
";;",
"--",
"-=",
"==",
"==",
"**",
"**",
"&&",
"%%",
"%$",
"##",
"@+",
"++",
"++",
"oO",
"XX",
".X",
"..",
"  "
};
